<svg xmlns="http://www.w3.org/2000/svg" width="48" height="48" enable-background="new 0 0 16 16"><path d="M39 36h-.54c-.05-.15-.1-.3-.15-.44-.98-2.4-2.3-4.22-5.3-5.05V27c0-4.96-4.04-9-9-9s-9 4.04-9 9v3.5c-3 .84-4.32 2.64-5.3 5.04-.04.07-.06.15-.08.22C4.12 34.66 0 29.8 0 24v-3C0 14.37 5.37 9 12 9c1.14 0 2.22.2 3.27.5C16.42 4.1 21.23 0 27 0c6.63 0 12 5.37 12 12 0 1.06-.18 2.07-.44 3.04.15 0 .3-.04.44-.04 4.97 0 9 4.03 9 9v3c0 4.97-4.03 9-9 9zm-21 0h3v-9c0-1.66 1.35-3 3-3 1.67 0 3 1.34 3 3v9h3c1.22 0 2.3.73 2.77 1.85.12.28.2.57.22.86.07.9-.23 1.78-.88 2.42l-6 6c-.58.6-1.35.88-2.12.88s-1.54-.3-2.12-.88l-6-6c-.64-.64-.94-1.53-.86-2.4.02-.3.1-.6.2-.87C15.7 36.73 16.8 36 18 36z"/></svg>